<svg width="40" height="40" viewBox="0 0 40 40" fill="none" xmlns="http://www.w3.org/2000/svg">
<path d="M4.96047 5.03987C3.28047 6.79987 3.20047 7.67987 3.20047 20.0799C3.20047 37.7599 2.24047 36.7999 20.0805 36.7999C37.3605 36.7999 36.8005 37.2799 36.8005 22.8799C36.8005 16.3199 36.4805 12.8799 36.0005 13.1999C35.5205 13.5199 35.2005 17.7599 35.2005 23.1999C35.2005 30.7199 34.9605 32.9599 33.9205 33.9199C32.0805 35.8399 7.92047 35.8399 6.08047 33.9199C4.16047 32.0799 4.16047 7.91987 6.08047 6.07987C7.12047 5.03987 9.44047 4.79987 18.8005 4.79987C25.6005 4.79987 30.4805 4.47987 30.8005 3.99987C31.1205 3.43987 26.9605 3.19987 18.9605 3.19987C7.12047 3.19987 6.64047 3.27987 4.96047 5.03987Z" fill="#001343" fill-opacity="0.6"/>
<path d="M27.9984 14.0797C24.3184 18.4797 20.8784 22.4797 20.3184 23.1197C19.4384 24.0797 18.7984 23.7597 15.9184 21.2797C14.0784 19.6797 12.3184 18.5597 12.0784 18.7997C11.5984 19.3597 18.5584 26.4797 19.2784 26.2397C20.6384 25.7597 35.2784 7.83967 35.0384 7.03967C34.8784 6.55967 31.6784 9.75967 27.9984 14.0797Z" fill="#001343" fill-opacity="0.6"/>
</svg>
