<svg width="40" height="40" viewBox="0 0 40 40" fill="none" xmlns="http://www.w3.org/2000/svg">
<path d="M21.52 0.720093C16.4 2.40009 16 2.88009 16 8.32009V13.3601L10.56 13.7601C7.6 14.0001 4 14.8001 2.56 15.5201L0 16.8801V26.8001V36.7201L2.56 38.1601C4.48 39.2001 7.04 39.6001 12 39.6001C20.4 39.6001 24 38.0801 24 34.4801C24 32.2401 24.08 32.2401 29.44 31.8401C32.4 31.6001 36 30.8001 37.44 30.0801L40 28.7201V16.0001V3.28009L37.44 1.92009C34.48 0.400093 24.8 -0.319908 21.52 0.720093ZM35.2 2.64009C41.12 4.64009 36.64 7.92009 28 7.92009C22.72 7.92009 18 6.48009 18 4.80009C18 3.12009 22.72 1.68009 28 1.68009C30.4 1.68009 33.68 2.08009 35.2 2.64009ZM28 9.52009C30.4 9.52009 33.76 9.04009 35.44 8.48009L38.48 7.36009L38.24 9.44009C37.92 12.0801 34.4 13.5201 28 13.5201C21.6 13.5201 18.08 12.0801 17.76 9.44009L17.52 7.36009L20.56 8.48009C22.24 9.04009 25.6 9.52009 28 9.52009ZM28 15.1201C30.4 15.1201 33.76 14.6401 35.44 14.0801L38.48 12.9601L38.24 15.0401C37.92 17.6801 34.48 19.1201 28.24 19.1201C24.88 19.2001 24 18.9601 24 17.9201C24 17.2001 22.64 16.0801 20.8 15.3601C16.8 13.6801 16.64 12.6401 20.64 14.0801C22.24 14.6401 25.6 15.1201 28 15.1201ZM19.2 16.2401C25.12 18.2401 20.64 21.5201 12 21.5201C6.72 21.5201 2 20.0801 2 18.4001C2 16.7201 6.72 15.2801 12 15.2801C14.4 15.2801 17.68 15.6801 19.2 16.2401ZM38.08 22.0001C37.52 23.4401 32.56 24.8001 27.84 24.8001C24.24 24.8001 24 24.6401 24 22.8001C24 20.9601 24.24 20.8001 28.24 20.7201C30.48 20.7201 33.68 20.2401 35.2 19.7601C38.16 18.7201 39.12 19.4401 38.08 22.0001ZM12 23.1201C14.4 23.1201 17.76 22.6401 19.44 22.0801L22.48 20.9601L22.24 23.0401C21.92 25.6801 18.4 27.1201 12 27.1201C5.6 27.1201 2.08 25.6801 1.76 23.0401L1.52 20.9601L4.56 22.0801C6.24 22.6401 9.6 23.1201 12 23.1201ZM38.08 27.6001C37.52 29.0401 32.56 30.4001 27.84 30.4001C24.24 30.4001 24 30.2401 24 28.4001C24 26.5601 24.24 26.4001 28.24 26.3201C30.48 26.3201 33.68 25.8401 35.2 25.3601C38.16 24.3201 39.12 25.0401 38.08 27.6001ZM12 28.7201C14.4 28.7201 17.76 28.2401 19.44 27.6801L22.48 26.5601L22.24 28.6401C21.92 31.2801 18.4 32.7201 12 32.7201C5.6 32.7201 2.08 31.2801 1.76 28.6401L1.52 26.5601L4.56 27.6801C6.24 28.2401 9.6 28.7201 12 28.7201ZM12 34.3201C14.4 34.3201 17.76 33.8401 19.44 33.2801L22.48 32.1601L22.24 34.2401C21.92 36.8801 18.4 38.3201 12 38.3201C5.6 38.3201 2.08 36.8801 1.76 34.2401L1.52 32.1601L4.56 33.2801C6.24 33.8401 9.6 34.3201 12 34.3201Z" fill="#001343" fill-opacity="0.6"/>
</svg>
