<svg width="40" height="40" viewBox="0 0 40 40" fill="none" xmlns="http://www.w3.org/2000/svg">
<g clip-path="url(#clip0_321_740)">
<path d="M4.95943 0.960097C3.83943 2.0801 3.67943 9.6001 4.79943 9.6001C5.27943 9.6001 5.59943 7.7601 5.59943 5.6001V1.6001H19.9994H34.3994V5.6001C34.3994 7.7601 34.7994 9.6001 35.1994 9.6001C36.3194 9.6001 36.1594 2.0801 35.0394 0.960097C33.6794 -0.399903 6.31943 -0.399903 4.95943 0.960097Z" fill="#001343" fill-opacity="0.6"/>
<path d="M12.2404 8.08016C9.04038 9.04016 9.04038 9.04016 8.08038 15.2002C7.28038 20.3202 6.48038 22.0002 5.84038 20.1602C5.28038 18.7202 4.00038 19.0402 4.00038 20.6402C4.00038 21.4402 3.60038 22.4802 3.20038 22.8802C2.64038 23.4402 2.40038 26.9602 2.56038 31.6802L2.80038 39.6002H6.40038C9.52038 39.6002 10.0004 39.3602 10.2404 37.7602C10.4804 36.0802 10.8804 36.0002 17.0404 36.0002C22.5604 36.0002 23.7604 36.2402 25.3604 37.7602C26.7204 39.0402 28.4804 39.6002 31.9204 39.8402L36.6404 40.1602L38.3204 36.4002C40.4804 31.5202 40.4004 30.4802 38.0004 25.4402C36.8804 23.2002 36.0004 20.8002 36.0004 20.2402C36.0004 18.8802 34.6404 18.8802 34.1604 20.1602C33.5204 22.0002 32.7204 20.2402 31.9204 15.1202C31.4404 12.3202 30.8004 9.68016 30.4004 9.28016C28.5604 7.44016 17.0404 6.72016 12.2404 8.08016ZM28.1604 10.0002C29.6004 10.5602 31.0404 15.6802 30.0004 16.6402C29.2804 17.3602 10.7204 17.3602 9.92038 16.5602C9.60038 16.2402 9.68038 14.6402 10.0804 13.0402C10.5604 10.8802 11.3604 9.92016 12.8004 9.44016C15.0404 8.80016 26.0804 9.20016 28.1604 10.0002ZM31.0404 20.4802C31.2004 21.6002 30.5604 22.3202 28.8804 22.8802C26.8004 23.6802 26.4804 23.6002 26.1604 22.2402C25.7604 20.8802 25.1204 20.7202 19.8404 20.9602L14.0004 21.2002V24.8002V28.4002L18.2404 28.6402C20.4804 28.8002 22.4004 29.2002 22.4004 29.6802C22.4004 30.0802 18.4804 30.4002 13.2004 30.4002H4.00038V27.3602C4.00038 24.0802 5.12038 22.4002 7.36038 22.4002C8.24038 22.4002 8.80038 21.8402 8.80038 20.9602C8.80038 20.1602 8.96038 19.2802 9.12038 19.1202C9.28038 18.9602 14.2404 18.8802 20.1604 18.8802C29.9204 18.9602 30.8004 19.1202 31.0404 20.4802ZM24.8004 23.5202C24.8004 26.5602 23.8404 27.2002 19.5204 27.2002C15.2804 27.2002 15.2004 27.2002 15.2004 24.8002V22.4002H20.0004C23.6004 22.4002 24.8004 22.7202 24.8004 23.5202ZM36.0804 26.3202C37.6804 27.9202 38.4004 29.4402 38.4004 31.2002C38.4004 34.6402 34.6404 38.4002 31.2004 38.4002C27.7604 38.4002 24.0004 34.6402 24.0004 31.2002C24.0004 27.7602 27.7604 24.0002 31.2004 24.0002C32.9604 24.0002 34.4804 24.7202 36.0804 26.3202ZM22.7204 33.2002C23.1204 34.2402 21.7604 34.4002 13.6004 34.4002C5.60038 34.4002 4.00038 34.1602 4.00038 33.2002C4.00038 31.4402 22.0004 31.4402 22.7204 33.2002ZM8.80038 37.2002C8.80038 38.0002 8.00038 38.4002 6.40038 38.4002C4.80038 38.4002 4.00038 38.0002 4.00038 37.2002C4.00038 36.4002 4.80038 36.0002 6.40038 36.0002C8.00038 36.0002 8.80038 36.4002 8.80038 37.2002Z" fill="#001343" fill-opacity="0.6"/>
<path d="M5.9185 25.1202C4.9585 27.5202 6.2385 28.8802 8.9585 28.6402C11.1985 28.4802 11.5985 28.0802 11.5985 26.4002C11.5985 24.7202 11.1985 24.3202 8.9585 24.1602C7.1985 24.0002 6.2385 24.3202 5.9185 25.1202ZM10.3985 26.4002C10.3985 26.8002 9.6785 27.2002 8.7985 27.2002C7.9185 27.2002 7.1985 26.8002 7.1985 26.4002C7.1985 25.9202 7.9185 25.6002 8.7985 25.6002C9.6785 25.6002 10.3985 25.9202 10.3985 26.4002Z" fill="#001343" fill-opacity="0.6"/>
<path d="M32.7979 30.8002C31.0379 32.6402 30.7979 32.7202 29.4379 31.4402C27.1979 29.4402 26.6379 30.9602 28.7979 33.2002L30.7179 35.2002L33.3579 32.6402C34.7979 31.2802 35.9979 29.7602 35.9979 29.4402C35.9979 28.2402 34.7179 28.8002 32.7979 30.8002Z" fill="#001343" fill-opacity="0.6"/>
<path d="M1.91902 11.4402C1.67902 12.0802 1.59902 13.8402 1.75902 15.3602C1.91902 17.6002 2.31902 18.0002 3.99902 18.0002C5.83902 18.0002 5.99902 17.6802 5.99902 14.4002C5.99902 11.2802 5.75902 10.8002 4.15902 10.5602C3.11902 10.4002 2.23902 10.8002 1.91902 11.4402ZM4.79902 14.4002C4.79902 15.6802 4.47902 16.8002 3.99902 16.8002C3.59902 16.8002 3.19902 15.6802 3.19902 14.4002C3.19902 13.0402 3.59902 12.0002 3.99902 12.0002C4.47902 12.0002 4.79902 13.0402 4.79902 14.4002Z" fill="#001343" fill-opacity="0.6"/>
<path d="M33.919 11.4402C33.679 12.0802 33.599 13.8402 33.759 15.3602C33.919 17.6002 34.319 18.0002 35.999 18.0002C37.839 18.0002 37.999 17.6802 37.999 14.4002C37.999 11.2802 37.759 10.8002 36.159 10.5602C35.119 10.4002 34.239 10.8002 33.919 11.4402ZM36.799 14.4002C36.799 15.6802 36.479 16.8002 35.999 16.8002C35.599 16.8002 35.199 15.6802 35.199 14.4002C35.199 13.0402 35.599 12.0002 35.999 12.0002C36.479 12.0002 36.799 13.0402 36.799 14.4002Z" fill="#001343" fill-opacity="0.6"/>
</g>
<defs>
<clipPath id="clip0_321_740">
<rect width="40" height="40" fill="white"/>
</clipPath>
</defs>
</svg>
