<svg width="40" height="40" viewBox="0 0 40 40" fill="none" xmlns="http://www.w3.org/2000/svg">
<path d="M11.6006 3.52009C2.40056 7.68009 0.480559 18.9601 7.68056 25.7601C11.9206 29.6801 16.8806 30.5601 22.1606 28.4001L25.1206 27.1201L30.1606 32.1601C34.0806 36.0801 35.3606 36.9601 36.1606 36.1601C36.9606 35.3601 36.0806 34.0801 32.1606 30.1601L27.2006 25.1201L28.8006 22.0001C34.4006 11.0401 22.8006 -1.43991 11.6006 3.52009ZM22.4006 5.60009C26.0006 7.44009 28.8006 12.0001 28.8006 16.0001C28.8006 20.0001 26.0006 24.5601 22.4006 26.4001C20.7206 27.2801 18.1606 28.0001 16.8006 28.0001C12.8006 28.0001 8.24056 25.2001 6.40056 21.6001C3.36056 15.6801 5.12056 9.36009 10.8806 5.92009C14.7206 3.60009 18.2406 3.52009 22.4006 5.60009Z" fill="#001343" fill-opacity="0.6"/>
</svg>
